<?xml version="1.0" encoding="utf-8"?>
<!-- Generator: Adobe Illustrator 18.1.0, SVG Export Plug-In . SVG Version: 6.00 Build 0)  -->
<svg version="1.1" id="圖層_1" xmlns="http://www.w3.org/2000/svg" xmlns:xlink="http://www.w3.org/1999/xlink" x="0px" y="0px"
	 viewBox="0 0 30 30" enable-background="new 0 0 30 30" xml:space="preserve">
<path fill-rule="evenodd" clip-rule="evenodd" d="M24.4,11l2.6-0.8l0.6,1.9l-2.6,0.8L24.4,11z M22.2,7.8l2.1-1.7l1.3,1.5l-2.1,1.7
	L22.2,7.8z M18.9,5.6l1.3-2.4l1.8,0.9l-1.3,2.4L18.9,5.6z M19.5,16.7h1v0.9h-1v2h-1.1v-2h-3.3v-0.8l2.3-5.4l0.9,0.4l-2.1,4.9h2.2
	l0.1-2.2h1V16.7z M14,19.5H9.3v-0.9c0.7-0.7,1.3-1.3,1.7-1.8c0.5-0.5,0.8-0.9,1.1-1.3c0.3-0.4,0.4-0.7,0.5-1
	c0.1-0.3,0.2-0.6,0.2-0.9c0-0.5-0.1-0.8-0.4-1s-0.6-0.4-1-0.4c-0.3,0-0.6,0.1-0.9,0.2c-0.2,0.1-0.5,0.4-0.8,0.7l-0.7-0.6
	c0.3-0.4,0.7-0.7,1.1-0.9c0.4-0.2,0.8-0.3,1.4-0.3c0.4,0,0.7,0.1,1,0.2c0.3,0.1,0.6,0.3,0.8,0.5c0.2,0.2,0.4,0.4,0.5,0.7
	c0.1,0.3,0.2,0.6,0.2,0.9c0,0.4-0.1,0.7-0.2,1.1c-0.1,0.3-0.3,0.7-0.6,1.1c-0.3,0.4-0.6,0.8-1,1.3c-0.4,0.5-0.9,1-1.6,1.6h3.5
	L14,19.5z M14.9,4.3C9,4.3,4.2,9.1,4.2,15c0,5.9,4.8,10.7,10.7,10.7c4.4,0,8.1-2.6,9.8-6.4l2,0.4c-1.9,4.7-6.4,8-11.8,8
	C7.9,27.7,2.2,22,2.2,15c0-7,5.7-12.7,12.7-12.7c0.9,0,1.8,0.1,2.7,0.3l-0.3,2C16.5,4.4,15.7,4.3,14.9,4.3z M25.1,14.9l2.7,0.3
	l-0.2,2L25,16.9L25.1,14.9z"/>
</svg>
